# xmcd CD database file
# Copyright (C) 1995-1998 Ti Kan
#
# Track frame offsets:
#	150
#	12930
#	30142
#	44640
#	60960
#	78105
#	93052
#	110105
#	123060
#	140240
#	159342
#	177207
#	191427
#
# Disc length: 2805 seconds
#
# Revision: 1
# Processed by: cddbd v1.4PL0 Copyright (c) Steve Scherf et al.
# Submitted via: CDex 1.30Release
#
DISCID=960af30d
DTITLE=Adam Harvey - Workin' Overtime
DYEAR=2001
DGENRE=Country
TTITLE0=The House That Jack Built
TTITLE1=One And One And One
TTITLE2=She's Gone, Gone, Gone
TTITLE3=Workin' Overtime
TTITLE4=The Shake Of A Hand
TTITLE5=Two-Steppin' Fool
TTITLE6=What It Used To Be
TTITLE7=Beauty's In The Eye (Of The Beerholder)
TTITLE8=Boats To Build
TTITLE9=I'll Drink To That
TTITLE10=One Of A Kind
TTITLE11=Little Bitty Thing Called Love
TTITLE12=I Feel Like Hank Williams Tonight
EXTD=YEAR: 2001 ID3G:   2
EXTT0=
EXTT1=
EXTT2=
EXTT3=
EXTT4=
EXTT5=
EXTT6=
EXTT7=
EXTT8=
EXTT9=
EXTT10=
EXTT11=
EXTT12=
PLAYORDER=
